<svg viewBox="0 0 800 600" xmlns="http://www.w3.org/2000/svg" xmlns:xlink="http://www.w3.org/1999/xlink"><defs><linearGradient x1="71.676%" y1="20.405%" x2="53.371%" y2="86.877%" id="a"><stop stop-color="#A1AEBB" offset="0%"/><stop stop-color="#EFF1F3" stop-opacity="0" offset="100%"/></linearGradient><linearGradient x1="74.075%" y1="36.633%" x2="64.107%" y2="74.826%" id="b"><stop stop-color="#A1AEBB" offset="0%"/><stop stop-color="#EFF1F3" stop-opacity="0" offset="100%"/></linearGradient><linearGradient x1="47.52%" y1="46.15%" x2="97.862%" y2="58.539%" id="c"><stop stop-color="#A1AEBB" offset="0%"/><stop stop-color="#EFF1F3" stop-opacity="0" offset="100%"/></linearGradient><linearGradient x1="51.786%" y1="38.147%" x2="102.4%" y2="85.424%" id="d"><stop stop-color="#A1AEBB" offset="0%"/><stop stop-color="#EFF1F3" stop-opacity="0" offset="100%"/></linearGradient><linearGradient x1="44.52%" y1="41.571%" x2="38.476%" y2="135.159%" id="e"><stop stop-color="#A1AEBB" offset="0%"/><stop stop-color="#EFF1F3" stop-opacity="0" offset="100%"/></linearGradient><linearGradient x1="50.051%" y1="0%" x2="50%" y2="100%" id="f"><stop stop-color="#25C4F2" offset="0%"/><stop stop-color="#25C4F2" stop-opacity="0" offset="100%"/></linearGradient><linearGradient x1="48.834%" y1="50%" x2="43.931%" y2="100%" id="g"><stop stop-color="#A1AEBB" offset="0%"/><stop stop-color="#EFF1F3" stop-opacity="0" offset="100%"/></linearGradient><linearGradient x1="40.245%" y1="47.286%" x2="95.984%" y2="52.72%" id="h"><stop stop-color="#A1AEBB" offset="0%"/><stop stop-color="#EFF1F3" stop-opacity="0" offset="100%"/></linearGradient><linearGradient x1="39.673%" y1="28.719%" x2="107.061%" y2="89.212%" id="i"><stop stop-color="#A1AEBB" offset="0%"/><stop stop-color="#EFF1F3" stop-opacity="0" offset="100%"/></linearGradient><linearGradient x1="80.69%" y1="0%" x2="50%" y2="100%" id="j"><stop stop-color="#25C4F2" offset="0%"/><stop stop-color="#25C4F2" stop-opacity="0" offset="100%"/></linearGradient><radialGradient cy="8.522%" fx="50%" fy="8.522%" r="64.079%" gradientTransform="matrix(0 1 -.98415 0 .584 -.415)" id="m"><stop stop-color="#FFF" offset="0%"/><stop stop-color="#E3E6EA" offset="100%"/></radialGradient><circle id="l" cx="90" cy="90" r="90"/><filter x="-77.2%" y="-57.8%" width="254.4%" height="254.4%" filterUnits="objectBoundingBox" id="k"><feOffset dy="35" in="SourceAlpha" result="shadowOffsetOuter1"/><feGaussianBlur stdDeviation="40.5" in="shadowOffsetOuter1" result="shadowBlurOuter1"/><feColorMatrix values="0 0 0 0 0 0 0 0 0 0 0 0 0 0 0 0 0 0 0.11 0" in="shadowBlurOuter1" result="shadowMatrixOuter1"/><feOffset dy="8" in="SourceAlpha" result="shadowOffsetOuter2"/><feGaussianBlur stdDeviation="8.5" in="shadowOffsetOuter2" result="shadowBlurOuter2"/><feColorMatrix values="0 0 0 0 0 0 0 0 0 0 0 0 0 0 0 0 0 0 0.1 0" in="shadowBlurOuter2" result="shadowMatrixOuter2"/><feOffset dy="36" in="SourceAlpha" result="shadowOffsetOuter3"/><feGaussianBlur stdDeviation="25.5" in="shadowOffsetOuter3" result="shadowBlurOuter3"/><feColorMatrix values="0 0 0 0 0.170666458 0 0 0 0 0.186145616 0 0 0 0 0.201624774 0 0 0 0.02 0" in="shadowBlurOuter3" result="shadowMatrixOuter3"/><feMerge><feMergeNode in="shadowMatrixOuter1"/><feMergeNode in="shadowMatrixOuter2"/><feMergeNode in="shadowMatrixOuter3"/></feMerge></filter><filter x="-50.3%" y="-30.8%" width="200.6%" height="200.6%" filterUnits="objectBoundingBox" id="n"><feMorphology radius="3" in="SourceAlpha" result="shadowSpreadInner1"/><feGaussianBlur stdDeviation="5.5" in="shadowSpreadInner1" result="shadowBlurInner1"/><feOffset dy="-5" in="shadowBlurInner1" result="shadowOffsetInner1"/><feComposite in="shadowOffsetInner1" in2="SourceAlpha" operator="arithmetic" k2="-1" k3="1" result="shadowInnerInner1"/><feColorMatrix values="0 0 0 0 0.430221491 0 0 0 0 0.462888712 0 0 0 0 0.495555933 0 0 0 0.1 0" in="shadowInnerInner1" result="shadowMatrixInner1"/><feGaussianBlur stdDeviation="4" in="SourceAlpha" result="shadowBlurInner2"/><feOffset dy="-3" in="shadowBlurInner2" result="shadowOffsetInner2"/><feComposite in="shadowOffsetInner2" in2="SourceAlpha" operator="arithmetic" k2="-1" k3="1" result="shadowInnerInner2"/><feColorMatrix values="0 0 0 0 0.170666458 0 0 0 0 0.186145616 0 0 0 0 0.201624774 0 0 0 0.2 0" in="shadowInnerInner2" result="shadowMatrixInner2"/><feMerge><feMergeNode in="shadowMatrixInner1"/><feMergeNode in="shadowMatrixInner2"/></feMerge></filter><linearGradient x1="50%" y1="0%" x2="50%" y2="100%" id="q"><stop stop-color="#E0E4E8" offset="0%"/><stop stop-color="#C0C5C8" offset="100%"/></linearGradient><path d="M110 79.12c.413-.032.83-.049 1.25-.049 8.975 0 16.25 7.484 16.25 16.715 0 8.798-6.61 16.009-15 16.665v.049h-45v-.049c-8.39-.656-15-7.867-15-16.665 0-9.231 7.275-16.715 16.25-16.715.42 0 .837.017 1.25.05v-.05C70 67.711 78.954 58.5 90 58.5s20 9.21 20 20.571v.05z" id="p"/><filter x="-5.3%" y="-3.7%" width="110.7%" height="114.8%" filterUnits="objectBoundingBox" id="o"><feOffset dy="2" in="SourceAlpha" result="shadowOffsetOuter1"/><feGaussianBlur stdDeviation="1" in="shadowOffsetOuter1" result="shadowBlurOuter1"/><feColorMatrix values="0 0 0 0 1 0 0 0 0 1 0 0 0 0 1 0 0 0 0.6 0" in="shadowBlurOuter1"/></filter><filter x="-7.3%" y="-6.5%" width="114.7%" height="120.4%" filterUnits="objectBoundingBox" id="r"><feMorphology radius="2" in="SourceAlpha" result="shadowSpreadInner1"/><feGaussianBlur stdDeviation="1" in="shadowSpreadInner1" result="shadowBlurInner1"/><feOffset in="shadowBlurInner1" result="shadowOffsetInner1"/><feComposite in="shadowOffsetInner1" in2="SourceAlpha" operator="arithmetic" k2="-1" k3="1" result="shadowInnerInner1"/><feColorMatrix values="0 0 0 0 0 0 0 0 0 0 0 0 0 0 0 0 0 0 0.03 0" in="shadowInnerInner1" result="shadowMatrixInner1"/><feGaussianBlur stdDeviation="2.5" in="SourceAlpha" result="shadowBlurInner2"/><feOffset dy="2" in="shadowBlurInner2" result="shadowOffsetInner2"/><feComposite in="shadowOffsetInner2" in2="SourceAlpha" operator="arithmetic" k2="-1" k3="1" result="shadowInnerInner2"/><feColorMatrix values="0 0 0 0 0 0 0 0 0 0 0 0 0 0 0 0 0 0 0.2 0" in="shadowInnerInner2" result="shadowMatrixInner2"/><feMerge><feMergeNode in="shadowMatrixInner1"/><feMergeNode in="shadowMatrixInner2"/></feMerge></filter></defs><g fill="none" fill-rule="evenodd"><g stroke-dasharray="1,5" stroke-linecap="round" stroke-linejoin="round" stroke-width="2"><path d="M328 0L215.858 112.142A20 20 0 0 0 210 126.284v139.483a20 20 0 0 1-5.796 14.08L96 389H0" stroke="url(#a)" transform="translate(75 308)"/><path d="M761 0L648.858 112.142A20 20 0 0 0 643 126.284v139.483a20 20 0 0 1-5.796 14.08L534.868 383.08a20 20 0 0 1-14.203 5.92H443L328 274v-89.18" stroke="url(#b)" transform="matrix(-1 0 0 1 1164 308)"/><path d="M328 0h150.716a20 20 0 0 1 14.142 5.858L584.66 97.66a20 20 0 0 1 .664.696l11.602 12.777" stroke="url(#c)" transform="translate(75 308)"/><path d="M0 0h150.716a20 20 0 0 1 14.142 5.858l86.284 86.284A20 20 0 0 1 257 106.284V233c0 11.046 8.954 20 20 20h51" stroke="url(#d)" transform="matrix(-1 0 0 1 403 308)"/></g><path d="M328 0L215.858 112.142A20 20 0 0 0 210 126.284V274" stroke="url(#e)" stroke-width="2" stroke-linecap="round" stroke-linejoin="round" stroke-dasharray="1,5" transform="matrix(1 0 0 -1 75 288)"/><path d="M444.482 130.733l1.045 71.603c.008.828.947.825.938-.004l1.017-71.628a1.5 1.5 0 0 0-3 .03z" fill="url(#f)" fill-rule="nonzero" transform="translate(75 -44.174)"/><path d="M446 0L333.858 112.142A20 20 0 0 0 328 126.284V285" stroke="url(#g)" stroke-width="2" stroke-linecap="round" stroke-linejoin="round" stroke-dasharray="1,5" transform="rotate(180 424.5 144)"/><path d="M328 0h150.716a20 20 0 0 1 14.142 5.858l86.284 86.284A20 20 0 0 0 593.284 98H680" stroke="url(#h)" stroke-width="2" stroke-linecap="round" stroke-linejoin="round" stroke-dasharray="1,5" transform="matrix(1 0 0 -1 75 288)"/><path d="M0 0h150.716a20 20 0 0 1 14.142 5.858l86.284 86.284A20 20 0 0 1 257 106.284V233c0 11.046 8.954 20 20 20h51" stroke="url(#i)" stroke-width="2" stroke-linecap="round" stroke-linejoin="round" stroke-dasharray="1,5" transform="rotate(180 201.5 144)"/><path d="M559.929 327.95l-49.892 51.37c-.58.59.086 1.252.666.66l51.368-49.93a1.5 1.5 0 0 0-2.142-2.1z" fill="url(#j)" fill-rule="nonzero" transform="matrix(-1 0 0 1 1147.314 3)"/><path d="M444.482 463.56l1.045 71.602c.008.828.947.825.938-.004l1.017-71.628a1.5 1.5 0 0 0-3 .03z" fill="url(#f)" fill-rule="nonzero" transform="matrix(1 0 0 -1 75 1000.826)"/><path d="M153.929 219.95l-49.892 51.37c-.58.59.086 1.252.666.66l51.368-49.93a1.5 1.5 0 0 0-2.142-2.1z" fill="url(#j)" fill-rule="nonzero" transform="matrix(1 0 0 -1 75 494.712)"/><path d="M265.115 365.45l-49.891 51.37c-.58.59.086 1.252.666.66l51.368-49.93a1.5 1.5 0 0 0-2.143-2.1z" fill="url(#j)" fill-rule="nonzero" transform="rotate(180 278.843 392.856)"/><g><g transform="translate(313 208)"><use fill="#000" filter="url(#k)" xlink:href="#l"/><use fill="url(#m)" xlink:href="#l"/><use fill="#000" filter="url(#n)" xlink:href="#l"/></g><g transform="translate(313 208)"><use fill="#000" filter="url(#o)" xlink:href="#p"/><use fill="url(#q)" xlink:href="#p"/><use fill="#000" filter="url(#r)" xlink:href="#p"/></g></g></g></svg>